<svg xmlns="http://www.w3.org/2000/svg" width="971.796" height="147.384" viewBox="0 0 971.796 147.384">
  <g id="Group_4589" data-name="Group 4589" transform="translate(246.488 -529.342)">
    <path id="Path_1915" data-name="Path 1915" d="M27.2,583.795c-1.181-.018-1.414.869-1.857,1.474Q15.222,599.1,5.124,612.945c-2.262,3.1-4.544,6.179-6.8,9.284-1.187,1.637-1.177,1.662.052,3.306q8.682,11.616,17.374,23.225,8.24,11.039,16.454,22.1a1.748,1.748,0,0,1,.55,1.279c-.295.674-.91.543-1.446.544-9.92.006-19.839-.027-29.758.035a3.527,3.527,0,0,1-3.079-1.88q-4.886-6.817-9.78-13.63Q-20.044,645.04-28.8,632.89c-.353-.49-.577-1.159-1.307-1.289-.7.3-.494.932-.522,1.453-.033.638-.014,1.28,0,1.919.267,11.831-.594,23.649-.383,35.48.036,1.987-.218,2.218-2.2,2.223q-12.6.031-25.2,0c-2.086,0-2.216-.157-2.211-2.421.017-6.559.088-13.118.09-19.676q.013-55.436,0-110.871c0-3.806,0-3.8,3.83-3.8h22.8c.56,0,1.12.01,1.68.009,1.1,0,1.593.583,1.592,1.647,0,.479.005.959.005,1.439q0,36.957,0,73.914a4.886,4.886,0,0,0,.264,2.531c.941.063,1.152-.661,1.476-1.134q9.216-13.44,18.4-26.9c2.438-3.559,4.987-7.043,7.359-10.644a3.977,3.977,0,0,1,3.773-1.947c12.158.059,24.317.032,36.476.033.48,0,.961.023,1.44,0,1.537-.077,1.791-.24,1.9-1.835a67.219,67.219,0,0,1,.826-8.574c1.2-5.951,3.127-11.565,6.944-16.389a33.8,33.8,0,0,1,14.939-10.788,61.417,61.417,0,0,1,23-3.82c3.678.062,7.364-.041,11.034.149a112.973,112.973,0,0,1,13.058,1.619c4.005.681,7.986,1.51,11.974,2.286,1.589.309,2.031.809,2.144,2.391.034.477,0,.959,0,1.439q0,62.154-.017,124.309c0,1.989-.241,3.977-.364,5.965a1.393,1.393,0,0,1-1.523,1.476c-.4.008-.8.01-1.2.01q-12.119,0-24.238,0c-2.594,0-2.663-.077-2.66-2.718q.048-53.872.094-107.747a6.785,6.785,0,0,0-.191-2.789c-.482-.641-1.2-.583-1.792-.645-5.232-.547-10.4-.293-15.137,2.243-4.608,2.47-6.843,6.552-7.116,11.725-.094,1.79.164,2.055,2.042,2.079,2.959.038,5.919,0,8.879.014a8.043,8.043,0,0,1,2.526.155c.668.54.55,1.213.55,1.839q.009,12,0,24c0,2.1-.156,2.238-2.381,2.254-3.04.023-6.08-.007-9.12.016-.776.006-1.608-.2-2.316.383a4.522,4.522,0,0,0-.273,2.562q-.018,31.559-.008,63.115c0,.48.026.962-.006,1.439-.105,1.546-.51,1.957-2.031,2.074-.4.03-.8.007-1.2.007-5.359,0-10.723.136-16.076-.051-3.331-.115-6.665-.382-9.816-.4a2.212,2.212,0,0,1-.639-1.749q.066-32.394.1-64.789a3.215,3.215,0,0,0-.658-2.6H27.76c-.793-1.89-.354-3.582-.43-5.226-.073-1.6-.016-3.2-.016-4.8,0-1.68.069-3.364-.02-5.039C27.212,586.9,27.649,585.324,27.2,583.795Z" fill="#4892e6"/>
    <path id="Path_1916" data-name="Path 1916" d="M564.553,637.206a16.691,16.691,0,0,0,5.159,7.365,22.237,22.237,0,0,0,11.991,4.968c6.8.8,13.383.266,19.506-3.208a38.823,38.823,0,0,0,4.654-3.634c2.432.9,22.02,12.279,23.428,13.614-.607,1.869-2.069,3.194-3.338,4.563a46.567,46.567,0,0,1-20.186,12.808,62.479,62.479,0,0,1-24.6,2.638,55.413,55.413,0,0,1-25.35-7.976A47.216,47.216,0,0,1,535.4,642.076a54.876,54.876,0,0,1-2.641-20.766c.965-13.862,6.087-25.845,16.438-35.356a47.968,47.968,0,0,1,18.192-10.334,56.381,56.381,0,0,1,21.964-2.316,47.42,47.42,0,0,1,23.255,8.014,47.977,47.977,0,0,1,17.979,22.462,57.928,57.928,0,0,1,3.089,31.287,1.638,1.638,0,0,1-1.938,1.616c-.637-.046-1.279-.005-1.919-.005q-31.307,0-62.614.008A3.653,3.653,0,0,0,564.553,637.206Zm-.7-23.28c.511.689,1.108.567,1.646.567q18.794.012,37.588,0c.629,0,1.306.076,1.746-.8a19.09,19.09,0,0,0-10.3-12.337c-3.913-1.937-8.1-2.251-12.351-1.968-7.454.5-13.223,3.8-16.86,10.467A9.445,9.445,0,0,0,563.855,613.926Z" fill="#4892e6"/>
    <path id="Path_1917" data-name="Path 1917" d="M266.413,636.6a13.952,13.952,0,0,0,2.974,5.218,19.761,19.761,0,0,0,11.792,6.8c7.149,1.421,14.131,1.182,20.777-2.2a22.34,22.34,0,0,0,4.714-3.262,1.994,1.994,0,0,1,2.6-.352q10.665,6.2,21.348,12.375a2.912,2.912,0,0,1,.427.335c.281.85-.246,1.219-.566,1.638a45.784,45.784,0,0,1-23.615,16.354,61.712,61.712,0,0,1-20.352,2.473,58.928,58.928,0,0,1-24.7-5.905,47.3,47.3,0,0,1-23.959-26.54,54.677,54.677,0,0,1-2.645-27.811,52.373,52.373,0,0,1,6.818-19.266,47.448,47.448,0,0,1,17.278-16.91,54.863,54.863,0,0,1,21.769-6.729,53.064,53.064,0,0,1,15.949.763,46.048,46.048,0,0,1,21.915,10.653c9.555,8.354,14.969,18.9,16.769,31.4a67.4,67.4,0,0,1-.14,18.856c-.173,1.264-.795,1.845-2.075,1.751-.556-.041-1.119-.006-1.679-.006q-31.071,0-62.144.006A7.879,7.879,0,0,0,266.413,636.6Zm40.343-22.9a18.922,18.922,0,0,0-9.456-12.292c-4.065-2.357-8.6-2.861-13.191-2.5-8.3.648-14.481,4.5-17.822,12.368-.339.8-.845,1.575-.186,2.746,12.836.1,25.824-.178,38.8.388A2.35,2.35,0,0,0,306.756,613.7Z" fill="#4892e6"/>
    <path id="Path_1918" data-name="Path 1918" d="M-99.637,672.53a4.918,4.918,0,0,1-.428-3.02c-.013-17.837.012-35.674-.024-53.511a16.552,16.552,0,0,0-4.4-11.823c-3.749-3.944-8.554-5.116-13.774-4.841A18.373,18.373,0,0,0-127.119,602a14.844,14.844,0,0,0-6.234,8.24,25.338,25.338,0,0,0-1.37,8.237c.044,16.958.023,33.915.023,50.872,0,.56-.008,1.12,0,1.68a1.307,1.307,0,0,1-1.433,1.514c-.48.014-.96.014-1.44.014h-24c-.4,0-.8-.009-1.2-.007-1.057.005-1.671-.44-1.625-1.576.016-.4.005-.8.005-1.2q0-46.072,0-92.144c0-.24,0-.48,0-.72.042-2.29.15-2.426,2.484-2.43q12.358-.02,24.716,0c2.342,0,2.431.131,2.487,2.424a38.159,38.159,0,0,0,.188,5.736c1.421-1.228,2.523-2.212,3.658-3.156,5.076-4.221,11.03-6.277,17.5-7.071a47.374,47.374,0,0,1,11.939-.007,33.362,33.362,0,0,1,20.532,10.341,37.462,37.462,0,0,1,9.588,19.743,63.317,63.317,0,0,1,.838,11.2q-.022,27.956,0,55.911c0,.479-.008.959,0,1.439.022,1.061-.417,1.677-1.552,1.644-.239-.006-.479,0-.719,0q-12.718,0-25.436-.007A14.72,14.72,0,0,1-99.637,672.53Z" fill="#4892e6"/>
    <path id="Path_1919" data-name="Path 1919" d="M198.448,665.155c-1.826,1.042-2.637,2.276-3.751,3.158a34.109,34.109,0,0,1-20.854,7.3c-1.838.05-3.68.038-5.518,0A34.156,34.156,0,0,1,137.55,654.1a47.693,47.693,0,0,1-3.37-18.013c.045-19.355.016-38.71.015-58.065,0-.4-.023-.8,0-1.2.09-1.415.5-1.819,1.95-1.747,7.593.372,15.189.065,22.783.152.955.011,1.91-.165,2.866-.187,1.373-.031,1.859.426,1.973,1.814.046.556.006,1.119.006,1.679q0,26.034.008,52.067a22.788,22.788,0,0,0,1.5,8.427c2.229,5.671,6.678,8.432,12.4,9.235a21.159,21.159,0,0,0,9.009-.64c5.8-1.712,9.055-5.641,10.786-11.188,1.364-4.371,1.035-8.874,1.06-13.328.085-14.956.03-29.912.035-44.868a7.728,7.728,0,0,1,.193-2.65,7.019,7.019,0,0,1,3.286-.533c7.749.517,15.506.213,23.259.307a7.147,7.147,0,0,1,2.469.171,2.26,2.26,0,0,1,.47,1.929c.006,15.516.125,31.034-.033,46.548-.154,15.116-.025,30.23-.106,45.345,0,.48.008.96,0,1.439-.043,2.255-.191,2.437-2.507,2.428q-12.474-.045-24.948-.144c-1.984-.016-2.159-.21-2.193-2.23C198.425,669.12,198.448,667.391,198.448,665.155Z" fill="#4892e6"/>
    <path id="Path_1920" data-name="Path 1920" d="M343.008,673.034c-.207-.286-.29-.348-.293-.414-.276-5.831-.248-11.666,0-17.494.053-1.265.231-2.539.231-3.817q0-36.479,0-72.957c0-.08,0-.16,0-.24.007-2.738.007-2.741,2.866-2.753q2.64-.011,5.28,0,9.358.043,18.717.1c2.536.016,2.71.21,2.748,2.729q.033,2.156.1,4.309c0,.121.177.236.312.4.742.13,1.077-.517,1.5-.935a30.436,30.436,0,0,1,14.09-7.731,44.425,44.425,0,0,1,19.715-.66A32.7,32.7,0,0,1,424,581.293c5.793,5.075,9.285,11.553,11.294,18.845a42.277,42.277,0,0,1,1.34,11.384c-.057,18.8-.028,37.6-.021,56.4,0,1.117.047,2.236.113,3.352.109,1.866-.179,2.2-2.134,2.259-.959.03-1.92.007-2.88.007q-10.679,0-21.359,0c-.639,0-1.281,0-1.918-.043a1.171,1.171,0,0,1-1.176-1.253c-.022-.639-.007-1.28-.007-1.92,0-17.439.027-34.878-.021-52.318a20.5,20.5,0,0,0-2.549-10.338,14.4,14.4,0,0,0-10.982-7.255c-5.476-.814-10.659-.067-15.177,3.523a14.8,14.8,0,0,0-4.709,7.08,22.065,22.065,0,0,0-1.281,7.286c.048,6.56-.063,13.121.034,19.679.163,11.116-.51,22.221-.331,33.335.033,2.019-.175,2.319-2.169,2.2-8.709-.53-17.424-.156-26.135-.3A5.4,5.4,0,0,1,343.008,673.034Z" fill="#4892e6"/>
    <path id="Path_1921" data-name="Path 1921" d="M537.781,597.6c-.317,1.156-1.149,1.493-1.908,1.932q-10.884,6.3-21.762,12.612c-1.641.948-1.929.824-3.027-.816-3.775-5.641-9.076-8.5-15.844-8.935a22.42,22.42,0,0,0-11.644,1.973,20.589,20.589,0,0,0-11.235,13.816,24.917,24.917,0,0,0,1.171,16.41,18.681,18.681,0,0,0,8.878,9.722c7.835,4.014,15.65,3.79,23.211-.8a17.945,17.945,0,0,0,5.493-5.611c1.16-1.747,1.169-1.756,2.917-.759q10.723,6.109,21.438,12.235c.346.2.673.431,1,.658,1.463,1.01,1.519,1.1.552,2.652A48.463,48.463,0,0,1,513.2,672.649a51.5,51.5,0,0,1-20.108,3.722,53.229,53.229,0,0,1-20.726-4.29,49.077,49.077,0,0,1-27.151-28.519,54.53,54.53,0,0,1-2.948-25.673,51.11,51.11,0,0,1,8.267-22.742,47.754,47.754,0,0,1,16.735-15.48,50.308,50.308,0,0,1,17.295-6.052,55.189,55.189,0,0,1,20.244.443,52.27,52.27,0,0,1,21.841,10.391A46.419,46.419,0,0,1,537.781,597.6Z" fill="#4892e6"/>
    <path id="Path_1922" data-name="Path 1922" d="M-246.165,672.17a4.028,4.028,0,0,1-.282-2.366q-.015-32.987,0-65.974.028-35.744.1-71.487c.005-2.994.008-2.995,3.121-3,1.439,0,2.878,0,4.318,0q9.956,0,19.912,0c2.407,0,2.557.124,2.558,2.593.011,22.631.28,45.266-.069,67.891-.356,23.106-.04,46.207-.23,69.31,0,.16,0,.32,0,.48,0,2.92,0,2.931-2.9,2.933q-12,.008-23.991-.006A4.085,4.085,0,0,1-246.165,672.17Z" fill="#4892e6"/>
    <path id="Path_1923" data-name="Path 1923" d="M670.844,590.019a3,3,0,0,0,1.477-1.63c4.075-7.049,10.294-11.083,18.042-13.157a51.38,51.38,0,0,1,6.822-1.157c2.3-.295,2.776.267,2.844,2.572.24,8.155-.414,16.294-.4,24.444a36.637,36.637,0,0,0,.173,4.067c.219,1.939-.127,2.253-2.066,2.215a38.464,38.464,0,0,0-11.172.9c-9.526,2.622-15.122,9.347-15.888,19.246-.117,1.511-.091,3.035-.091,4.553q-.01,19.188,0,38.376c0,.48.025.961,0,1.439-.092,1.56-.245,1.75-1.888,1.769-3.277.038-6.556.011-9.834.011-5.116,0-10.233.008-15.35,0-2.686-.005-2.768-.081-2.768-2.631,0-25.984-.1-51.968.086-77.95.037-5.094.239-10.205.324-15.31.028-1.658.3-1.931,2.006-1.936q12.711-.036,25.424,0c1.908.005,2.126.257,2.139,2.291.022,3.437-.006,6.875,0,10.313C670.716,588.894,670.787,589.351,670.844,590.019Z" fill="#4892e6"/>
    <path id="Path_1924" data-name="Path 1924" d="M-175.61,623.477q0,22.917,0,45.835c0,.559.011,1.12-.016,1.679a1.453,1.453,0,0,1-1.5,1.531c-.479.032-.96.03-1.439.03q-12,0-24,0c-.479,0-.961,0-1.439-.029a1.453,1.453,0,0,1-1.49-1.542c-.027-.559-.016-1.119-.016-1.679v-91.19c0-.16,0-.32,0-.48.01-3.028.126-3.157,3.078-3.159q11.278-.009,22.557,0c.64,0,1.281-.019,1.92,0,1.975.067,2.285.394,2.345,2.448.011.4,0,.8,0,1.2Z" fill="#4892e6"/>
    <path id="Path_1925" data-name="Path 1925" d="M706.307,639.175a18.775,18.775,0,1,1-18.692,19.042A18.769,18.769,0,0,1,706.307,639.175Z" fill="#71f955"/>
    <path id="Path_1926" data-name="Path 1926" d="M-172.662,548.718c.241,8.686-7.291,17.758-17.711,17.743a17.646,17.646,0,0,1-17.84-17.888c.041-10.239,7.964-17.727,17.993-17.726A17.726,17.726,0,0,1-172.662,548.718Z" fill="#4892e6"/>
  </g>
</svg>
